<svg xmlns="http://www.w3.org/2000/svg" xmlns:xlink="http://www.w3.org/1999/xlink" version="1.1" id="Layer_1" x="0px" y="0px" viewBox="0 0 222.612 40.274" style="enable-background:new 0 0 222.612 40.274;" xml:space="preserve" class="editable-svg replaced-svg"> <path id="Group_1734" transform="translate(219.651 334.362)" style="fill:#212121;" d="M-182.802-302.862v-14.131 c0.0727-9.5923-7.6444-17.4275-17.2368-17.5002c-9.5924-0.0727-17.4275,7.6444-17.5002,17.2368 c-0.0007,0.0878-0.0007,0.1756,0,0.2634v14.131c-1.319,0.8-2.107,1.738-2.107,2.83c0,3.9,9.8,5.943,19.476,5.943 s19.476-2.041,19.476-5.943C-180.702-301.124-181.488-302.065-182.802-302.862z M-200.171-304.377c10.4,0,15.77,1.982,15.77,2.829 s-5.369,2.824-15.774,2.824s-15.77-1.982-15.77-2.828s5.365-2.825,15.77-2.825H-200.171z M-215.941-316.994 c0-8.7098,7.0607-15.7705,15.7705-15.7705c8.7098,0,15.7705,7.0607,15.7705,15.7705v13.331c-0.34-0.139-0.695-0.273-1.071-0.4 c-2.743-1.074-7.133-1.6-10.936-1.808c-0.234-0.013-0.469-0.021-0.7-0.032c-0.293-0.013-0.582-0.025-0.865-0.035 c-0.235-0.007-0.469-0.014-0.7-0.019c-0.521-0.012-1.025-0.02-1.489-0.02s-0.969,0.008-1.489,0.02c-0.236,0-0.469,0.012-0.7,0.019 c-0.283,0.009-0.573,0.022-0.868,0.035c-0.234,0.011-0.468,0.019-0.7,0.032c-3.8,0.2-8.2,0.734-10.939,1.809 c-0.376,0.126-0.73,0.26-1.069,0.4L-215.941-316.994z M-200.171-295.688c-11.076,0-17.877-2.531-17.877-4.345 c0.0581-0.4012,0.2824-0.7595,0.618-0.987c1.092,3.064,11.57,3.9,17.26,3.9s16.168-0.834,17.26-3.9 c0.3353,0.2276,0.5593,0.5859,0.617,0.987c-0.009,1.815-6.809,4.346-17.882,4.346L-200.171-295.688z M-200.176-302.246 c3.069,0,5.557,0.3125,5.557,0.698s-2.4879,0.698-5.557,0.698s-5.557-0.3125-5.557-0.698S-203.245-302.246-200.176-302.246z M-209.97-311.868c0.4451,0.2857,0.9538,0.4574,1.481,0.5c0.0442,0.0043,0.0886,0.006,0.133,0.005 c0.0497,0.001,0.0995-0.0006,0.149-0.005c0.055,0.0036,0.1103,0.0019,0.165-0.005c0.085-0.005,0.16-0.011,0.24-0.021 c0.4695-0.0775,0.9167-0.2555,1.311-0.522l0.144-0.1c0.181-0.118,0.373-0.245,0.565-0.368c0.229-0.149,0.448-0.3,0.656-0.442 c0.5029-0.362,1.0607-0.6409,1.652-0.826c0.3192-0.0952,0.6451-0.1664,0.975-0.213c0.6246-0.1039,1.1935-0.4222,1.609-0.9 c0.3432-0.3459,0.5895-0.7759,0.714-1.247c0.1243,0.4712,0.3706,0.9013,0.714,1.247c0.4154,0.478,0.9843,0.7962,1.609,0.9 c0.3302,0.0465,0.6564,0.1177,0.976,0.213c0.5914,0.185,1.1492,0.4639,1.652,0.826c0.208,0.143,0.427,0.293,0.656,0.442 c0.192,0.122,0.384,0.25,0.565,0.368l0.144,0.1c0.3943,0.2665,0.8415,0.4445,1.311,0.522c0.08,0.011,0.155,0.016,0.239,0.021 c0.0551,0.0069,0.1106,0.0086,0.166,0.005c0.0495,0.0044,0.0993,0.006,0.149,0.005c0.0444,0.0009,0.0888-0.0007,0.133-0.005 c0.5272-0.0426,1.0359-0.2143,1.481-0.5c0.2817-0.1776,0.5366-0.3944,0.757-0.644c0.6562-0.7451,1.0126-1.7072,1-2.7v-0.868h-0.784 c-0.3085,0.0018-0.6167-0.0196-0.922-0.064c-0.9338-0.1604-1.816-0.5406-2.574-1.109c-0.091-0.064-0.187-0.128-0.283-0.191 c-0.192-0.123-0.389-0.256-0.591-0.389s-0.421-0.277-0.619-0.41c-0.881-0.7217-1.9529-1.1716-3.085-1.295 c-0.055-0.0072-0.1106-0.0089-0.166-0.005c-0.0939-0.0057-0.1881-0.0057-0.282,0c-0.527,0.0435-1.0354,0.2152-1.481,0.5 c-0.288,0.181-0.762,0.474-0.762,0.474s-0.475-0.292-0.762-0.474c-0.4456-0.2847-0.954-0.4564-1.481-0.5 c-0.0943-0.0058-0.1888-0.0058-0.283,0c-0.055-0.0038-0.1103-0.0022-0.165,0.005c-1.1321,0.1234-2.204,0.5734-3.085,1.295 c-0.2,0.133-0.405,0.277-0.618,0.41s-0.4,0.266-0.592,0.389c-0.1,0.064-0.191,0.128-0.283,0.191 c-0.7579,0.5687-1.6402,0.9488-2.574,1.109c-0.3053,0.0444-0.6135,0.0658-0.922,0.064h-0.783v0.868 c-0.0124,0.9928,0.3439,1.9548,1,2.7C-210.5025-312.2629-210.2496-312.0461-209.97-311.868z"></path> <path id="Group_1735" transform="translate(0 0)" style="fill:#212121;" d="M118.449,20.132c0-2.933-2.011-4.275-4.945-4.275 c-4.834,0-7.321,3.66-7.321,7.851c0,4.135,1.9,7.181,6.79,7.181c1.9122,0.0411,3.7953-0.4733,5.421-1.481l-1.229-3.1 c-1.0495,0.7089-2.2827,1.097-3.549,1.117c-1.342,0.1441-2.5575-0.7992-2.751-2.135h-0.011c-0.008-0.045-0.012-0.1-0.019-0.142 s-0.014-0.065-0.018-0.1l0,0c-0.0929-0.9097-0.109-1.8256-0.048-2.738h-0.012c0.083-1.816,1.034-3.129,2.486-3.129 c0.5898-0.073,1.127,0.3459,1.2,0.9357c0.0109,0.0878,0.0109,0.1765,0,0.2643c0,1.188-0.926,1.847-2.883,1.924 c-0.0642,0.9128-0.0465,1.8294,0.053,2.739C115.464,24.964,118.449,23.844,118.449,20.132z M127.838,27.312 c-1.313,0-1.593-0.447-1.593-1.984v-6.007h3.046l0.224-3.074h-3.269v-3.269h-2.57c-0.4294,1.799-1.834,3.2036-3.633,3.633 l-0.363,2.71h1.872v6.482c0,2.571,0.056,5.085,4.917,5.085c1.3015,0.0326,2.5899-0.2654,3.745-0.866l-0.643-3.129 C129.0374,27.1753,128.4416,27.3193,127.838,27.312z M77.038,20.132c0-2.933-2.012-4.275-4.945-4.275 c-4.834,0-7.321,3.66-7.321,7.851c0,4.135,1.9,7.181,6.79,7.181c1.9122,0.0412,3.7953-0.4733,5.421-1.481l-1.229-3.1 c-1.0494,0.709-2.2827,1.0972-3.549,1.117c-1.3427,0.1447-2.559-0.7994-2.752-2.136h-0.012 c-0.1259-0.9879-0.1531-1.9858-0.081-2.979h-0.005c0-0.037,0.009-0.07,0.012-0.106s0.006-0.086,0.006-0.095l0,0 c0.143-1.709,1.067-2.929,2.465-2.929c0.5898-0.073,1.127,0.3459,1.2,0.9357c0.0109,0.0878,0.0109,0.1765,0,0.2643 c0,1.189-0.928,1.848-2.89,1.924c-0.0642,0.9128-0.0464,1.8294,0.053,2.739C74.053,24.965,77.038,23.846,77.038,20.132z M98.11,18.4 h-0.056v-2.148h-5.839v2.627l0.978,0.084c0.475,0.056,0.642,0.251,0.642,0.811v7.236c0,0.671-0.112,0.895-0.67,0.923l-0.923,0.084 v2.515h8.634v-2.6l-2.431-0.14v-6.119c0-1.286,0.642-2.235,1.76-2.235c0.1993-0.0104,0.3987,0.0182,0.587,0.084 c0.2,0.084,0.223,0.2,0.223,0.587v1.928l3.661-0.223v-5.533c-0.8256-0.2901-1.696-0.4316-2.571-0.418 C100.3747,15.7931,98.7825,16.8041,98.11,18.4z M86.094,27.252c-1.872,0-2.794-1.453-2.794-3.911c0-2.6,0.95-3.941,2.6-3.941 c0.2815-0.001,0.5623,0.0272,0.838,0.084c0.335,0.112,0.391,0.335,0.391,0.754v1.369l3.3-0.223v-4.471 c-1.4375-0.7234-3.029-1.0875-4.638-1.061c-3.716,0-7.181,2.151-7.181,7.684c0,4.918,2.655,7.348,6.818,7.348 c1.9549,0.019,3.861-0.6097,5.421-1.788l-1.649-3.017C88.314,26.7871,87.227,27.1977,86.094,27.252z M58.881,21.809 c-1.4-0.419-2.571-0.7-2.571-1.7c0-0.727,0.615-1.174,1.621-1.174c0.3983-0.015,0.7959,0.042,1.174,0.168 c0.307,0.112,0.364,0.307,0.364,0.727v1.006l3.129-0.224v-3.75c-1.4539-0.6703-3.0371-1.0133-4.638-1.005 c-3.633,0-6.2,1.732-6.2,4.834c0,3.045,2.123,3.772,4.079,4.275c1.453,0.335,2.543,0.558,2.543,1.537c0,0.95-0.7,1.313-1.788,1.313 c-0.4641,0.0076-0.9264-0.06-1.369-0.2c-0.335-0.111-0.391-0.335-0.391-0.7v-1.062l-3.129,0.223v3.856 c1.6359,0.647,3.3819,0.9697,5.141,0.95c3.8,0,6.259-1.816,6.259-4.918C63.1,23.066,60.837,22.367,58.881,21.809z M187.182,27.252 c-1.872,0-2.794-1.453-2.794-3.911c0-2.6,0.95-3.941,2.6-3.941c0.2815-0.001,0.5623,0.0272,0.838,0.084 c0.335,0.112,0.391,0.335,0.391,0.754v1.369l3.3-0.223v-4.471c-1.4375-0.7234-3.0289-1.0875-4.638-1.061 c-3.717,0-7.181,2.151-7.181,7.684c0,4.918,2.655,7.348,6.818,7.348c1.9549,0.019,3.8611-0.6096,5.421-1.788l-1.648-3.017 C189.4026,26.7873,188.3153,27.1978,187.182,27.252z M207.524,20.606c0-3.073-1.258-4.749-4.248-4.749 c-1.6007-0.0586-3.0958,0.7971-3.856,2.207v-7.46h-6.174v2.627l0.95,0.112c0.5,0.056,0.671,0.223,0.671,0.81v12.853 c0,0.7-0.14,0.894-0.671,0.923l-0.922,0.083v2.515h7.4V27.9l-1.174-0.056v-6.119c0-1.286,0.7-2.207,1.844-2.207 c1.229,0,1.509,0.727,1.509,2.012v5.588c0,0.587-0.111,0.754-0.475,0.782l-0.559,0.056v2.571h7.069v-2.571l-1.369-0.112 L207.524,20.606z M217.779,27.424c-1.3423,0.1447-2.5585-0.7988-2.752-2.135h-0.011c-0.1261-0.9882-0.1533-1.9865-0.081-2.98h-0.006 c0-0.044,0.01-0.084,0.014-0.127v-0.074l0,0c0.143-1.709,1.068-2.929,2.465-2.929c0.5898-0.073,1.127,0.3459,1.2,0.9357 c0.0109,0.0878,0.0109,0.1765,0,0.2643c0,1.189-0.928,1.848-2.889,1.924c-0.0646,0.9128-0.0469,1.8294,0.053,2.739 c3.844-0.082,6.83-1.2,6.83-4.915c0-2.933-2.011-4.275-4.946-4.275c-4.833,0-7.32,3.66-7.32,7.851c0,4.135,1.9,7.181,6.79,7.181 c1.9119,0.041,3.7946-0.4734,5.42-1.481l-1.229-3.1C220.2711,27.0114,219.042,27.4008,217.779,27.424z M146.753,21.809 c-1.4-0.419-2.571-0.7-2.571-1.7c0-0.727,0.616-1.174,1.621-1.174c0.3979-0.0149,0.7952,0.0421,1.173,0.168 c0.308,0.112,0.364,0.307,0.364,0.727v1.006l3.13-0.224v-3.75c-1.4539-0.6702-3.0371-1.0133-4.638-1.005 c-3.633,0-6.2,1.732-6.2,4.834c0,3.045,2.123,3.772,4.079,4.275c1.453,0.335,2.542,0.558,2.542,1.537c0,0.95-0.7,1.313-1.788,1.313 c-0.4642,0.0077-0.9265-0.0599-1.369-0.2c-0.335-0.111-0.391-0.335-0.391-0.7v-1.062l-3.13,0.223v3.856 c1.6359,0.6469,3.382,0.9696,5.141,0.95c3.8,0,6.259-1.816,6.259-4.918C150.972,23.066,148.709,22.367,146.753,21.809z M160.249,27.312c-1.313,0-1.593-0.447-1.593-1.984v-6.007h3.045l0.224-3.074h-3.269v-3.269h-2.571 c-0.4281,1.7997-1.8333,3.2049-3.633,3.633l-0.363,2.71h1.873v6.482c0,2.571,0.055,5.085,4.917,5.085 c1.3015,0.0326,2.59-0.2654,3.745-0.866l-0.643-3.129C161.4477,27.175,160.8523,27.3191,160.249,27.312z M176.734,27.117v-10.2 c-1.723-0.6623-3.5475-1.0213-5.393-1.061c-5.17,0-7.712,3.241-7.712,8.158c0,3.717,1.341,6.874,5.588,6.874 c1.4048,0.0846,2.7548-0.5572,3.576-1.7l0.084,0.028l0.2,1.313h5.03v-2.543l-0.727-0.056 C176.873,27.899,176.734,27.704,176.734,27.117z M172.123,25.917c0.0129,0.9001-0.7064,1.6403-1.6066,1.6531 c-0.0515,0.0007-0.103-0.001-0.1544-0.0051c-1.676,0-2.068-1.76-2.068-3.884c0-2.348,0.531-4.5,2.543-4.5 c0.4392-0.0116,0.8763,0.0642,1.286,0.223L172.123,25.917z"></path> </svg>